<svg width="79" height="79" viewBox="0 0 79 79" fill="none" xmlns="http://www.w3.org/2000/svg">
<path d="M71.5938 20.9844H70.3594V17.2812C70.3594 16.9539 70.2293 16.6399 69.9978 16.4084C69.7663 16.1769 69.4524 16.0469 69.125 16.0469H67.8906V12.3438C67.8906 12.0164 67.7606 11.7024 67.5291 11.4709C67.2976 11.2394 66.9836 11.1094 66.6562 11.1094H59.25C58.9226 11.1094 58.6087 11.2394 58.3772 11.4709C58.1457 11.7024 58.0156 12.0164 58.0156 12.3438V16.0469H56.7812C56.4539 16.0469 56.1399 16.1769 55.9084 16.4084C55.6769 16.6399 55.5469 16.9539 55.5469 17.2812V20.9844H46.178L41.6108 16.4048C41.4954 16.2904 41.3587 16.1999 41.2083 16.1385C41.0579 16.0771 40.8968 16.0459 40.7344 16.0469H7.40625C6.59575 16.0469 5.79318 16.2065 5.04438 16.5167C4.29557 16.8268 3.61519 17.2815 3.04208 17.8546C1.88462 19.012 1.23438 20.5819 1.23438 22.2188V61.7188C1.23438 63.3556 1.88462 64.9255 3.04208 66.0829C3.61519 66.656 4.29557 67.1107 5.04438 67.4208C5.79318 67.731 6.59575 67.8906 7.40625 67.8906H71.5938C73.2306 67.8906 74.8005 67.2404 75.9579 66.0829C77.1154 64.9255 77.7656 63.3556 77.7656 61.7188V27.1562C77.7656 25.5194 77.1154 23.9495 75.9579 22.7921C74.8005 21.6346 73.2306 20.9844 71.5938 20.9844ZM60.4844 13.5781H65.4219V16.0469H60.4844V13.5781ZM58.0156 18.5156H67.8906V20.9844H58.0156V18.5156ZM7.40625 18.5156H40.2283L44.7955 23.0952C44.9108 23.2096 45.0476 23.3001 45.198 23.3615C45.3484 23.4229 45.5094 23.4541 45.6719 23.4531H71.5938C72.5759 23.4531 73.5178 23.8433 74.2122 24.5377C74.9067 25.2322 75.2969 26.1741 75.2969 27.1562V33.3281H54.3125C52.5971 31.0151 50.3638 29.136 47.7916 27.8412C45.2194 26.5464 42.3797 25.8721 39.5 25.8721C36.6203 25.8721 33.7806 26.5464 31.2084 27.8412C28.6362 29.136 26.4029 31.0151 24.6875 33.3281H3.70312V22.2188C3.70312 21.2366 4.09327 20.2947 4.78775 19.6002C5.48222 18.9058 6.42412 18.5156 7.40625 18.5156ZM23.4531 44.4375C23.4531 41.2637 24.3943 38.1612 26.1575 35.5223C27.9208 32.8834 30.4269 30.8267 33.3591 29.6121C36.2913 28.3976 39.5178 28.0798 42.6306 28.699C45.7434 29.3181 48.6027 30.8464 50.8469 33.0906C53.091 35.3348 54.6194 38.1941 55.2385 41.3069C55.8577 44.4197 55.5399 47.6462 54.3254 50.5784C53.1108 53.5106 51.0541 56.0167 48.4152 57.78C45.7763 59.5432 42.6738 60.4844 39.5 60.4844C35.2441 60.4844 31.1625 58.7937 28.1531 55.7844C25.1438 52.775 23.4531 48.6934 23.4531 44.4375ZM24.6875 55.5469H3.70312V35.7969H23.1322C21.481 38.8945 20.7502 42.3996 21.0257 45.899C21.3013 49.3983 22.5718 52.7459 24.6875 55.5469ZM58.0156 44.4375C58.0197 41.4247 57.282 38.4572 55.8678 35.7969H75.2969V55.5469H54.3125C56.7235 52.3457 58.0237 48.445 58.0156 44.4375ZM71.5938 65.4219H7.40625C6.42412 65.4219 5.48222 65.0317 4.78775 64.3373C4.09327 63.6428 3.70312 62.7009 3.70312 61.7188V58.0156H26.9587C30.3636 61.1896 34.8452 62.9546 39.5 62.9546C44.1548 62.9546 48.6364 61.1896 52.0412 58.0156H75.2969V61.7188C75.2969 62.7009 74.9067 63.6428 74.2122 64.3373C73.5178 65.0317 72.5759 65.4219 71.5938 65.4219Z" fill="black"/>
<path d="M39.5 58.0156C42.1855 58.0156 44.8107 57.2193 47.0436 55.7273C49.2765 54.2353 51.0169 52.1147 52.0445 49.6336C53.0722 47.1526 53.3411 44.4224 52.8172 41.7885C52.2933 39.1546 51.0001 36.7353 49.1012 34.8363C47.2022 32.9374 44.7829 31.6442 42.149 31.1203C39.5151 30.5964 36.785 30.8653 34.3039 31.893C31.8228 32.9207 29.7022 34.661 28.2102 36.8939C26.7182 39.1268 25.9219 41.752 25.9219 44.4375C25.9219 48.0386 27.3524 51.4923 29.8988 54.0387C32.4452 56.5851 35.8989 58.0156 39.5 58.0156ZM39.5 33.3281C41.6972 33.3281 43.8451 33.9797 45.672 35.2004C47.499 36.4211 48.9229 38.1562 49.7637 40.1861C50.6046 42.2161 50.8246 44.4498 50.3959 46.6048C49.9673 48.7598 48.9092 50.7393 47.3555 52.293C45.8018 53.8467 43.8223 54.9048 41.6673 55.3334C39.5123 55.7621 37.2786 55.5421 35.2486 54.7012C33.2187 53.8604 31.4836 52.4365 30.2629 50.6095C29.0422 48.7826 28.3906 46.6347 28.3906 44.4375C28.3906 41.4911 29.5611 38.6654 31.6445 36.582C33.7279 34.4986 36.5536 33.3281 39.5 33.3281Z" fill="black"/>
<path d="M7.40625 30.8594H17.2812C17.6086 30.8594 17.9226 30.7293 18.1541 30.4978C18.3856 30.2663 18.5156 29.9524 18.5156 29.625V22.2188C18.5156 21.8914 18.3856 21.5774 18.1541 21.3459C17.9226 21.1144 17.6086 20.9844 17.2812 20.9844H7.40625C7.07887 20.9844 6.76491 21.1144 6.53342 21.3459C6.30193 21.5774 6.17188 21.8914 6.17188 22.2188V29.625C6.17188 29.9524 6.30193 30.2663 6.53342 30.4978C6.76491 30.7293 7.07887 30.8594 7.40625 30.8594ZM8.64062 23.4531H16.0469V28.3906H8.64062V23.4531Z" fill="black"/>
<path d="M12.3438 40.7344C11.6113 40.7344 10.8954 40.9516 10.2864 41.3585C9.67743 41.7654 9.20279 42.3437 8.92251 43.0204C8.64223 43.697 8.5689 44.4416 8.71178 45.1599C8.85467 45.8783 9.20736 46.5381 9.72525 47.056C10.2431 47.5739 10.903 47.9266 11.6213 48.0695C12.3396 48.2124 13.0842 48.139 13.7609 47.8587C14.4375 47.5785 15.0159 47.1038 15.4228 46.4948C15.8297 45.8859 16.0469 45.1699 16.0469 44.4375C16.0469 43.4554 15.6567 42.5135 14.9623 41.819C14.2678 41.1245 13.3259 40.7344 12.3438 40.7344ZM12.3438 45.6719C12.0996 45.6719 11.861 45.5995 11.658 45.4638C11.455 45.3282 11.2968 45.1354 11.2033 44.9099C11.1099 44.6843 11.0855 44.4361 11.1331 44.1967C11.1807 43.9572 11.2983 43.7373 11.4709 43.5647C11.6435 43.392 11.8635 43.2745 12.1029 43.2268C12.3424 43.1792 12.5906 43.2037 12.8161 43.2971C13.0417 43.3905 13.2345 43.5487 13.3701 43.7517C13.5057 43.9547 13.5781 44.1934 13.5781 44.4375C13.5781 44.7649 13.4481 45.0788 13.2166 45.3103C12.9851 45.5418 12.6711 45.6719 12.3438 45.6719Z" fill="black"/>
<path d="M66.6563 40.7344C65.9238 40.7344 65.2079 40.9516 64.5989 41.3585C63.9899 41.7654 63.5153 42.3437 63.235 43.0204C62.9547 43.697 62.8814 44.4416 63.0243 45.1599C63.1672 45.8783 63.5199 46.5381 64.0377 47.056C64.5556 47.5739 65.2155 47.9266 65.9338 48.0695C66.6521 48.2124 67.3967 48.139 68.0734 47.8587C68.75 47.5785 69.3284 47.1038 69.7353 46.4948C70.1422 45.8859 70.3594 45.1699 70.3594 44.4375C70.3594 43.4554 69.9692 42.5135 69.2748 41.819C68.5803 41.1245 67.6384 40.7344 66.6563 40.7344ZM66.6563 45.6719C66.4121 45.6719 66.1735 45.5995 65.9705 45.4638C65.7675 45.3282 65.6093 45.1354 65.5158 44.9099C65.4224 44.6843 65.398 44.4361 65.4456 44.1967C65.4932 43.9572 65.6108 43.7373 65.7834 43.5647C65.956 43.392 66.176 43.2745 66.4154 43.2268C66.6549 43.1792 66.9031 43.2037 67.1286 43.2971C67.3542 43.3905 67.547 43.5487 67.6826 43.7517C67.8182 43.9547 67.8906 44.1934 67.8906 44.4375C67.8906 44.7649 67.7606 45.0788 67.5291 45.3103C67.2976 45.5418 66.9836 45.6719 66.6563 45.6719Z" fill="black"/>
</svg>
