<svg width="32" height="32" viewBox="0 0 32 32" fill="none" xmlns="http://www.w3.org/2000/svg">
<path fill-rule="evenodd" clip-rule="evenodd" d="M25.3327 21.7254V14.084V10.2738C25.3327 8.28415 23.7145 6.66663 21.7248 6.66663H10.2739C8.2842 6.66663 6.66667 8.28415 6.66667 10.2738V14.084V21.7254C6.66667 23.7158 8.2842 25.3333 10.2739 25.3333H21.7255C23.7145 25.3333 25.3327 23.7158 25.3327 21.7254ZM19.2857 15.9989C19.2857 17.8108 17.8096 19.2842 15.999 19.2842C14.1878 19.2842 12.7131 17.8101 12.7151 15.9983C12.7157 15.283 12.9478 14.6227 13.3364 14.0833C13.9347 13.2557 14.9044 12.7136 16.001 12.7136C17.097 12.7136 18.0674 13.2563 18.6643 14.0839C19.0517 14.6233 19.2857 15.2837 19.2857 15.9989ZM23.1731 11.98V9.22613V8.8163L22.7613 8.81762L20.0088 8.82621L20.0194 11.9905L23.1731 11.98ZM15.9996 21.104C18.8149 21.104 21.1047 18.8129 21.1047 15.999C21.1047 15.3221 20.9679 14.6749 20.7253 14.084H23.5128V21.7254C23.5128 22.713 22.7097 23.5128 21.7241 23.5128H10.2732C9.28628 23.5128 8.48446 22.713 8.48446 21.7254V14.084H11.2707C11.0301 14.6749 10.8952 15.3221 10.8952 15.999C10.8952 18.8129 13.1843 21.104 15.9996 21.104Z" fill="black"/>
<mask id="mask0" mask-type="alpha" maskUnits="userSpaceOnUse" x="6" y="6" width="20" height="20">
<path fill-rule="evenodd" clip-rule="evenodd" d="M25.3327 21.7254V14.084V10.2738C25.3327 8.28415 23.7145 6.66663 21.7248 6.66663H10.2739C8.2842 6.66663 6.66667 8.28415 6.66667 10.2738V14.084V21.7254C6.66667 23.7158 8.2842 25.3333 10.2739 25.3333H21.7255C23.7145 25.3333 25.3327 23.7158 25.3327 21.7254ZM19.2857 15.9989C19.2857 17.8108 17.8096 19.2842 15.999 19.2842C14.1878 19.2842 12.7131 17.8101 12.7151 15.9983C12.7157 15.283 12.9478 14.6227 13.3364 14.0833C13.9347 13.2557 14.9044 12.7136 16.001 12.7136C17.097 12.7136 18.0674 13.2563 18.6643 14.0839C19.0517 14.6233 19.2857 15.2837 19.2857 15.9989ZM23.1731 11.98V9.22613V8.8163L22.7613 8.81762L20.0088 8.82621L20.0194 11.9905L23.1731 11.98ZM15.9996 21.104C18.8149 21.104 21.1047 18.8129 21.1047 15.999C21.1047 15.3221 20.9679 14.6749 20.7253 14.084H23.5128V21.7254C23.5128 22.713 22.7097 23.5128 21.7241 23.5128H10.2732C9.28628 23.5128 8.48446 22.713 8.48446 21.7254V14.084H11.2707C11.0301 14.6749 10.8952 15.3221 10.8952 15.999C10.8952 18.8129 13.1843 21.104 15.9996 21.104Z" fill="white"/>
</mask>
<g mask="url(#mask0)">
<rect width="32" height="32" fill="#1E252C"/>
</g>
</svg>
