<svg width="32" height="32" viewBox="0 0 32 32" fill="none" xmlns="http://www.w3.org/2000/svg">
<path fill-rule="evenodd" clip-rule="evenodd" d="M8.86721 8C7.53697 8 6.66668 8.87319 6.66668 10.0204C6.66668 11.1433 7.51174 12.0417 8.81617 12.0417H8.8414C10.1977 12.0417 11.0411 11.1433 11.0411 10.0204C11.0152 8.87319 10.1977 8 8.86721 8ZM24.8056 18.6263V25.3334H20.917V19.0758C20.917 17.5046 20.3556 16.4316 18.9476 16.4316C17.8732 16.4316 17.2349 17.1539 16.953 17.8534C16.8506 18.1034 16.8242 18.4505 16.8242 18.8011V25.3331H12.9353C12.9353 25.3331 12.9875 14.7348 12.9353 13.6377H16.8245V15.295C16.8209 15.3012 16.8165 15.3072 16.8122 15.3132C16.8073 15.32 16.8024 15.3267 16.7987 15.3333H16.8245V15.295C17.3413 14.4999 18.2629 13.3631 20.3292 13.3631C22.8876 13.3631 24.8056 15.0346 24.8056 18.6263ZM10.7853 25.3333H6.89781V13.6376H10.7853V25.3333Z" fill="#1E252C"/>
<mask id="mask0" mask-type="alpha" maskUnits="userSpaceOnUse" x="6" y="8" width="19" height="18">
<path fill-rule="evenodd" clip-rule="evenodd" d="M8.86721 8C7.53697 8 6.66668 8.87319 6.66668 10.0204C6.66668 11.1433 7.51174 12.0417 8.81617 12.0417H8.8414C10.1977 12.0417 11.0411 11.1433 11.0411 10.0204C11.0152 8.87319 10.1977 8 8.86721 8ZM24.8056 18.6263V25.3334H20.917V19.0758C20.917 17.5046 20.3556 16.4316 18.9476 16.4316C17.8732 16.4316 17.2349 17.1539 16.953 17.8534C16.8506 18.1034 16.8242 18.4505 16.8242 18.8011V25.3331H12.9353C12.9353 25.3331 12.9875 14.7348 12.9353 13.6377H16.8245V15.295C16.8209 15.3012 16.8165 15.3072 16.8122 15.3132C16.8073 15.32 16.8024 15.3267 16.7987 15.3333H16.8245V15.295C17.3413 14.4999 18.2629 13.3631 20.3292 13.3631C22.8876 13.3631 24.8056 15.0346 24.8056 18.6263ZM10.7853 25.3333H6.89781V13.6376H10.7853V25.3333Z" fill="white"/>
</mask>
<g mask="url(#mask0)">
<rect width="32.0001" height="32" fill="#1E252C"/>
</g>
</svg>
