<svg width="75" height="23" viewBox="0 0 75 23" fill="none" xmlns="http://www.w3.org/2000/svg">
<path d="M60.0798 15.0436H73.5" stroke="#1E252C" stroke-width="2.26693" stroke-linecap="round" stroke-linejoin="round"/>
<path d="M51.1331 5.63975H73.5001" stroke="#1E252C" stroke-width="2.26693" stroke-linecap="round" stroke-linejoin="round"/>
<path d="M12.7735 4.10695V11.6694H11.5221V6.00029L9.33501 11.6694H8.24688L6.04887 6.00029V11.6694H4.8084V4.10695H6.31002L8.81271 10.1461L11.2719 4.10695H12.7735ZM18.8311 4.98833V7.31692H21.6602V8.27448H18.8311V10.6575H21.9866V11.6694H17.5906V3.98726H21.9866V4.98833H18.8311ZM32.7287 11.6694H31.4882L27.7559 6.00029V11.6694H26.5155V3.99814H27.7559L31.4882 9.68904V3.99814H32.7287V11.6694ZM38.741 3.98726V8.54651C38.741 9.2284 38.8897 9.73619 39.1871 10.0699C39.4918 10.4036 39.9162 10.5704 40.4602 10.5704C40.997 10.5704 41.4142 10.4036 41.7116 10.0699C42.0163 9.73619 42.1686 9.2284 42.1686 8.54651V3.98726H43.4091V8.54651C43.4091 9.59836 43.137 10.3963 42.593 10.9404C42.0489 11.4772 41.3307 11.7456 40.4385 11.7456C39.5535 11.7456 38.8426 11.4772 38.3057 10.9404C37.7689 10.3963 37.5005 9.59836 37.5005 8.54651V3.98726H38.741Z" fill="#1E252C"/>
</svg>
