<svg width="82" height="72" viewBox="0 0 82 72" fill="none" xmlns="http://www.w3.org/2000/svg">
<g clip-path="url(#clip0)">
<path d="M81.1048 9.39296C80.5677 8.92134 79.8515 8.60693 78.9563 8.60693H3.04367C2.23799 8.60693 1.43231 8.92134 0.895196 9.39296C0.358079 9.86458 0 10.4934 0 11.2794V60.7205C0.0895196 61.5065 0.358079 62.1353 0.984716 62.6069C1.52183 63.0786 2.32751 63.393 3.13319 63.393H78.9563C79.762 63.393 80.5677 63.0786 81.1048 62.6069C81.6419 62.1353 82 61.5065 82 60.7205V11.2794C82 10.572 81.6419 9.86458 81.1048 9.39296ZM79.2249 60.7205C79.2249 60.7991 79.2249 60.7991 79.1354 60.8777C79.1354 60.8777 79.0458 60.9563 78.9563 60.9563H3.04367C2.95415 60.9563 2.95415 60.9563 2.86463 60.8777C2.86463 60.8777 2.77511 60.7991 2.77511 60.7205V11.2794H2.86463C2.86463 11.2008 2.86463 11.2008 2.95415 11.1222C2.95415 11.1222 3.04367 11.0436 3.13319 11.0436H78.9563C79.0458 11.0436 79.0459 11.0436 79.1354 11.1222C79.1354 11.1222 79.2249 11.2008 79.2249 11.2794V60.7205Z" fill="black"/>
<path d="M73.048 16.9389C72.6004 16.5459 71.9738 16.3101 71.2576 16.3101H10.7424C10.0262 16.3101 9.39956 16.5459 8.95196 16.9389C8.50436 17.3319 8.2358 17.8821 8.2358 18.5109V53.6463C8.14628 54.1965 8.41484 54.7467 8.95196 55.2184C9.39956 55.6114 10.0262 55.8472 10.7424 55.8472H11.0109H25.9607H30.3472H40.9105H50.6681H70.9891H71.2576C71.9738 55.8472 72.6004 55.6114 73.048 55.2184C73.4956 54.8253 73.7642 54.2751 73.7642 53.6463V18.5109C73.7642 17.8821 73.4956 17.3319 73.048 16.9389ZM50.6681 53.4891V53.4105H40.9105H30.3472H25.9607H13.4279L19.6943 43.8996L25.9607 34.3887L32.2271 43.8996V43.9782L34.3755 47.2795C34.4651 47.4367 34.6441 47.5939 34.9127 47.7511C35.5393 48.0655 36.4345 47.9083 36.7926 47.2795L41.7162 39.8122L50.6681 26.1354L59.6201 39.7336V39.8122L68.572 53.4891H50.6681ZM71.0786 52.2315L62.0371 38.5546V38.476L51.8319 23.0699C51.4738 22.5197 50.5786 22.2839 49.952 22.5983C49.7729 22.6769 49.5939 22.8341 49.4148 23.0699L39.2991 38.5546L35.6288 44.1354L34.6441 42.6419V42.5633L27.214 31.2446C26.8559 30.6943 25.9607 30.4585 25.3341 30.7729C25.155 30.8515 24.976 31.0087 24.7969 31.2446L17.3668 42.6419L11.1004 52.2315V18.6681H71.0786V52.2315Z" fill="black"/>
<path d="M39.0306 22.9127C38.1354 22.1266 36.7926 21.5764 35.3603 21.5764C34.0175 21.5764 32.7642 22.048 31.7795 22.8341L31.69 22.9127C30.7948 23.6987 30.1681 24.8777 30.1681 26.1354C30.1681 27.393 30.7948 28.4934 31.69 29.3581C32.5852 30.1441 33.9279 30.6943 35.3603 30.6943C36.7926 30.6943 38.0458 30.2227 39.0306 29.3581C39.9258 28.572 40.5524 27.393 40.5524 26.1354C40.5524 24.8777 40.0153 23.7773 39.0306 22.9127ZM37.0611 27.6288C36.6135 28.0218 35.9869 28.2576 35.3603 28.2576C34.7336 28.2576 34.107 28.0218 33.6594 27.6288C33.2118 27.2358 32.9432 26.6856 32.9432 26.1354C32.9432 25.5065 33.2118 25.0349 33.6594 24.6419C34.107 24.2489 34.7336 24.0131 35.3603 24.0131C35.9869 24.0131 36.6135 24.2489 37.0611 24.6419C37.5087 25.0349 37.7773 25.5851 37.7773 26.1354C37.7773 26.6856 37.5087 27.2358 37.0611 27.6288Z" fill="black"/>
</g>
<defs>
<clipPath id="clip0">
<rect width="82" height="72" fill="white"/>
</clipPath>
</defs>
</svg>
