<svg width="224" height="50" viewBox="0 0 224 50" fill="none" xmlns="http://www.w3.org/2000/svg">
<rect x="1.6" y="1.6" width="220.8" height="46.8" stroke="black" stroke-width="3.2"/>
<path d="M191.5 22.5V25.5V29L195 25.5L191.5 22.5Z" fill="#0E0E0E"/>
<path d="M157 25.5C157 25.5 178.027 25.5 191.5 25.5M191.5 25.5V22.5L195 25.5L191.5 29V25.5Z" stroke="#0E0E0E" stroke-width="3"/>
<path d="M29.5 23V25.7692V29L26 25.7692L29.5 23Z" fill="#0E0E0E"/>
<path d="M64 25.7692C64 25.7692 42.9731 25.7692 29.5 25.7692M29.5 25.7692V23L26 25.7692L29.5 29V25.7692Z" stroke="#0E0E0E" stroke-width="3"/>
<path d="M90.832 25.272C90.832 27.0747 91.152 28.488 91.792 29.512C92.432 30.5253 93.4987 31.032 94.992 31.032C96.4853 31.032 97.552 30.52 98.192 29.496C98.832 28.472 99.152 27.064 99.152 25.272C99.152 23.4907 98.832 22.0933 98.192 21.08C97.552 20.056 96.4853 19.544 94.992 19.544C93.4987 19.544 92.432 20.0507 91.792 21.064C91.152 22.0773 90.832 23.48 90.832 25.272ZM97.328 25.272C97.328 26.5733 97.168 27.5707 96.848 28.264C96.528 28.9573 95.9093 29.304 94.992 29.304C94.064 29.304 93.44 28.9573 93.12 28.264C92.8 27.5707 92.64 26.5733 92.64 25.272C92.64 23.9813 92.8 22.9947 93.12 22.312C93.44 21.6293 94.064 21.288 94.992 21.288C95.9093 21.288 96.528 21.6347 96.848 22.328C97.168 23.0107 97.328 23.992 97.328 25.272ZM100.177 21.416V19.704H103.793V31H101.873V21.416H100.177Z" fill="black"/>
<path d="M111.112 15.896L106.76 33.816H104.984L109.336 15.896H111.112Z" fill="black"/>
<path d="M112.832 25.272C112.832 27.0747 113.152 28.488 113.792 29.512C114.432 30.5253 115.499 31.032 116.992 31.032C118.485 31.032 119.552 30.52 120.192 29.496C120.832 28.472 121.152 27.064 121.152 25.272C121.152 23.4907 120.832 22.0933 120.192 21.08C119.552 20.056 118.485 19.544 116.992 19.544C115.499 19.544 114.432 20.0507 113.792 21.064C113.152 22.0773 112.832 23.48 112.832 25.272ZM119.328 25.272C119.328 26.5733 119.168 27.5707 118.848 28.264C118.528 28.9573 117.909 29.304 116.992 29.304C116.064 29.304 115.44 28.9573 115.12 28.264C114.8 27.5707 114.64 26.5733 114.64 25.272C114.64 23.9813 114.8 22.9947 115.12 22.312C115.44 21.6293 116.064 21.288 116.992 21.288C117.909 21.288 118.528 21.6347 118.848 22.328C119.168 23.0107 119.328 23.992 119.328 25.272ZM123.089 22.328C123.089 21.7733 123.238 21.2667 123.537 20.808C123.835 20.3493 124.278 19.9813 124.865 19.704C125.462 19.4267 126.177 19.288 127.009 19.288C127.841 19.288 128.55 19.4267 129.137 19.704C129.734 19.9813 130.182 20.3493 130.481 20.808C130.79 21.2667 130.945 21.7733 130.945 22.328C130.945 22.9467 130.779 23.48 130.449 23.928C130.129 24.376 129.649 24.7013 129.009 24.904C129.723 25.128 130.273 25.4907 130.657 25.992C131.041 26.4827 131.233 27.0853 131.233 27.8C131.233 28.8987 130.843 29.7573 130.065 30.376C129.286 30.984 128.267 31.288 127.009 31.288C125.75 31.288 124.731 30.984 123.953 30.376C123.185 29.7573 122.801 28.8987 122.801 27.8C122.801 27.0853 122.993 26.4827 123.377 25.992C123.761 25.4907 124.31 25.128 125.025 24.904C124.385 24.7013 123.899 24.376 123.569 23.928C123.249 23.48 123.089 22.9467 123.089 22.328ZM124.897 22.616C124.897 23.192 125.083 23.64 125.457 23.96C125.841 24.2693 126.358 24.424 127.009 24.424C127.659 24.424 128.177 24.2693 128.561 23.96C128.945 23.64 129.137 23.192 129.137 22.616C129.137 22.04 128.939 21.592 128.545 21.272C128.161 20.952 127.649 20.792 127.009 20.792C126.369 20.792 125.857 20.952 125.473 21.272C125.089 21.592 124.897 22.04 124.897 22.616ZM124.577 27.704C124.577 28.3547 124.795 28.8667 125.233 29.24C125.67 29.6027 126.262 29.784 127.009 29.784C127.755 29.784 128.347 29.6027 128.785 29.24C129.222 28.8667 129.441 28.3547 129.441 27.704C129.441 27.0427 129.211 26.5467 128.753 26.216C128.305 25.8747 127.723 25.704 127.009 25.704C126.305 25.704 125.723 25.8747 125.265 26.216C124.806 26.5573 124.577 27.0533 124.577 27.704Z" fill="#7E7E7E"/>
</svg>
