<svg width="120" height="163" viewBox="0 0 120 163" fill="none" xmlns="http://www.w3.org/2000/svg">
<path d="M41.12 97.42C41.12 98.06 40.9667 98.6667 40.66 99.24C40.3667 99.8 39.9067 100.26 39.28 100.62C38.6533 100.967 37.8733 101.14 36.94 101.14C36.0333 101.14 35.2267 100.973 34.52 100.64C33.8133 100.307 33.2467 99.8533 32.82 99.28C32.4067 98.6933 32.1667 98.04 32.1 97.32H33.58C33.6333 97.7333 33.7867 98.1467 34.04 98.56C34.2933 98.9733 34.66 99.32 35.14 99.6C35.62 99.8667 36.2 100 36.88 100C37.7733 100 38.4533 99.76 38.92 99.28C39.4 98.8 39.64 98.1933 39.64 97.46C39.64 96.8333 39.48 96.3267 39.16 95.94C38.8533 95.54 38.4667 95.2333 38 95.02C37.5467 94.8067 36.92 94.5733 36.12 94.32C35.24 94.04 34.5267 93.7733 33.98 93.52C33.4467 93.2533 32.9933 92.8667 32.62 92.36C32.2467 91.8533 32.06 91.18 32.06 90.34C32.06 89.2733 32.4333 88.4067 33.18 87.74C33.9267 87.0733 34.9533 86.74 36.26 86.74C37.5933 86.74 38.6467 87.0667 39.42 87.72C40.2067 88.3733 40.6733 89.1867 40.82 90.16H39.32C39.2 89.56 38.88 89.0267 38.36 88.56C37.8533 88.0933 37.1533 87.86 36.26 87.86C35.4333 87.86 34.7733 88.0733 34.28 88.5C33.7867 88.9267 33.54 89.52 33.54 90.28C33.54 90.88 33.6933 91.3667 34 91.74C34.3067 92.1133 34.68 92.4 35.12 92.6C35.5733 92.8 36.1867 93.0267 36.96 93.28C37.8533 93.56 38.5733 93.8333 39.12 94.1C39.68 94.3667 40.1533 94.7667 40.54 95.3C40.9267 95.8333 41.12 96.54 41.12 97.42ZM48.4923 89.94C49.879 89.94 51.0257 90.3067 51.9323 91.04C52.8523 91.7733 53.4123 92.7467 53.6123 93.96H52.1523C52.0057 93.0933 51.599 92.4133 50.9323 91.92C50.2657 91.4133 49.4457 91.16 48.4723 91.16C47.7657 91.16 47.1123 91.32 46.5123 91.64C45.9257 91.96 45.4523 92.4533 45.0923 93.12C44.7457 93.7733 44.5723 94.58 44.5723 95.54C44.5723 96.5 44.7457 97.3133 45.0923 97.98C45.4523 98.6333 45.9257 99.12 46.5123 99.44C47.1123 99.76 47.7657 99.92 48.4723 99.92C49.4457 99.92 50.2657 99.6733 50.9323 99.18C51.599 98.6733 52.0057 97.9867 52.1523 97.12H53.6123C53.4123 98.3333 52.8523 99.3067 51.9323 100.04C51.0257 100.773 49.879 101.14 48.4923 101.14C47.4523 101.14 46.5257 100.92 45.7123 100.48C44.9123 100.027 44.2857 99.38 43.8323 98.54C43.379 97.6867 43.1523 96.6867 43.1523 95.54C43.1523 94.3933 43.379 93.4 43.8323 92.56C44.2857 91.7067 44.9123 91.06 45.7123 90.62C46.5257 90.1667 47.4523 89.94 48.4923 89.94ZM57.5533 92.34C57.8733 91.5533 58.3866 90.9467 59.0933 90.52C59.7999 90.0933 60.6599 89.88 61.6733 89.88V91.4H61.2133C60.1599 91.4 59.2866 91.6867 58.5933 92.26C57.8999 92.82 57.5533 93.74 57.5533 95.02V101H56.1333V90.08H57.5533V92.34ZM68.4756 89.94C69.5156 89.94 70.4423 90.1667 71.2556 90.62C72.0823 91.06 72.729 91.7067 73.1956 92.56C73.6623 93.4 73.8956 94.3933 73.8956 95.54C73.8956 96.6867 73.6623 97.68 73.1956 98.52C72.729 99.36 72.0823 100.007 71.2556 100.46C70.4423 100.913 69.5156 101.14 68.4756 101.14C67.4356 101.14 66.5023 100.913 65.6756 100.46C64.849 100.007 64.1956 99.36 63.7156 98.52C63.249 97.6667 63.0156 96.6733 63.0156 95.54C63.0156 94.3933 63.249 93.4 63.7156 92.56C64.1956 91.7067 64.849 91.06 65.6756 90.62C66.5023 90.1667 67.4356 89.94 68.4756 89.94ZM68.4756 91.16C67.7556 91.16 67.089 91.32 66.4756 91.64C65.8623 91.96 65.369 92.4533 64.9956 93.12C64.6223 93.7733 64.4356 94.58 64.4356 95.54C64.4356 96.5 64.6223 97.3067 64.9956 97.96C65.369 98.6133 65.8623 99.1 66.4756 99.42C67.089 99.74 67.7556 99.9 68.4756 99.9C69.1823 99.9 69.8356 99.74 70.4356 99.42C71.049 99.1 71.5423 98.6133 71.9156 97.96C72.289 97.3067 72.4756 96.5 72.4756 95.54C72.4756 94.58 72.289 93.7733 71.9156 93.12C71.5423 92.4533 71.049 91.96 70.4356 91.64C69.8356 91.32 69.1823 91.16 68.4756 91.16ZM77.8267 86.2V101H76.4067V86.2H77.8267ZM82.2798 86.2V101H80.8598V86.2H82.2798Z" fill="black"/>
<path fill-rule="evenodd" clip-rule="evenodd" d="M60.5 83V1H59.5V83H60.5ZM59.5 108V131.5H57.5L60 135L62 131.5H60.5V108H59.5Z" fill="black"/>
<path d="M60.5 1H61V0.5H60.5V1ZM60.5 83V83.5H61V83H60.5ZM59.5 1V0.5H59V1H59.5ZM59.5 83H59V83.5H59.5V83ZM59.5 131.5V132H60V131.5H59.5ZM59.5 108V107.5H59V108H59.5ZM57.5 131.5V131H56.5284L57.0931 131.791L57.5 131.5ZM60 135L59.5931 135.291L60.0468 135.926L60.4341 135.248L60 135ZM62 131.5L62.4341 131.748L62.8616 131H62V131.5ZM60.5 131.5H60V132H60.5V131.5ZM60.5 108H61V107.5H60.5V108ZM60 1V83H61V1H60ZM59.5 1.5H60.5V0.5H59.5V1.5ZM60 83V1H59V83H60ZM60.5 82.5H59.5V83.5H60.5V82.5ZM60 131.5V108H59V131.5H60ZM59.5 131H57.5V132H59.5V131ZM57.0931 131.791L59.5931 135.291L60.4069 134.709L57.9069 131.209L57.0931 131.791ZM60.4341 135.248L62.4341 131.748L61.5659 131.252L59.5659 134.752L60.4341 135.248ZM62 131H60.5V132H62V131ZM60 108V131.5H61V108H60ZM59.5 108.5H60.5V107.5H59.5V108.5Z" fill="black"/>
<circle cx="60" cy="103" r="59.5" stroke="#333333"/>
</svg>
