<svg width="335" height="68" viewBox="0 0 335 68" fill="none" xmlns="http://www.w3.org/2000/svg">
<rect width="335" height="68" fill="white"/>
<path d="M134 34H91M91 34L95 29M91 34L95 39.5" stroke="black" stroke-width="4"/>
<path d="M207 33.7619H250M250 33.7619L246 29M250 33.7619L246 39" stroke="black" stroke-width="4"/>
<path d="M149.832 34.272C149.832 36.0747 150.152 37.488 150.792 38.512C151.432 39.5253 152.499 40.032 153.992 40.032C155.485 40.032 156.552 39.52 157.192 38.496C157.832 37.472 158.152 36.064 158.152 34.272C158.152 32.4907 157.832 31.0933 157.192 30.08C156.552 29.056 155.485 28.544 153.992 28.544C152.499 28.544 151.432 29.0507 150.792 30.064C150.152 31.0773 149.832 32.48 149.832 34.272ZM156.328 34.272C156.328 35.5733 156.168 36.5707 155.848 37.264C155.528 37.9573 154.909 38.304 153.992 38.304C153.064 38.304 152.44 37.9573 152.12 37.264C151.8 36.5707 151.64 35.5733 151.64 34.272C151.64 32.9813 151.8 31.9947 152.12 31.312C152.44 30.6293 153.064 30.288 153.992 30.288C154.909 30.288 155.528 30.6347 155.848 31.328C156.168 32.0107 156.328 32.992 156.328 34.272ZM159.177 30.416V28.704H162.793V40H160.873V30.416H159.177Z" fill="black"/>
<path d="M170.112 24.896L165.76 42.816H163.984L168.336 24.896H170.112Z" fill="black"/>
<path d="M171.832 34.272C171.832 36.0747 172.152 37.488 172.792 38.512C173.432 39.5253 174.499 40.032 175.992 40.032C177.485 40.032 178.552 39.52 179.192 38.496C179.832 37.472 180.152 36.064 180.152 34.272C180.152 32.4907 179.832 31.0933 179.192 30.08C178.552 29.056 177.485 28.544 175.992 28.544C174.499 28.544 173.432 29.0507 172.792 30.064C172.152 31.0773 171.832 32.48 171.832 34.272ZM178.328 34.272C178.328 35.5733 178.168 36.5707 177.848 37.264C177.528 37.9573 176.909 38.304 175.992 38.304C175.064 38.304 174.44 37.9573 174.12 37.264C173.8 36.5707 173.64 35.5733 173.64 34.272C173.64 32.9813 173.8 31.9947 174.12 31.312C174.44 30.6293 175.064 30.288 175.992 30.288C176.909 30.288 177.528 30.6347 177.848 31.328C178.168 32.0107 178.328 32.992 178.328 34.272ZM182.089 31.328C182.089 30.7733 182.238 30.2667 182.537 29.808C182.835 29.3493 183.278 28.9813 183.865 28.704C184.462 28.4267 185.177 28.288 186.009 28.288C186.841 28.288 187.55 28.4267 188.137 28.704C188.734 28.9813 189.182 29.3493 189.481 29.808C189.79 30.2667 189.945 30.7733 189.945 31.328C189.945 31.9467 189.779 32.48 189.449 32.928C189.129 33.376 188.649 33.7013 188.009 33.904C188.723 34.128 189.273 34.4907 189.657 34.992C190.041 35.4827 190.233 36.0853 190.233 36.8C190.233 37.8987 189.843 38.7573 189.065 39.376C188.286 39.984 187.267 40.288 186.009 40.288C184.75 40.288 183.731 39.984 182.953 39.376C182.185 38.7573 181.801 37.8987 181.801 36.8C181.801 36.0853 181.993 35.4827 182.377 34.992C182.761 34.4907 183.31 34.128 184.025 33.904C183.385 33.7013 182.899 33.376 182.569 32.928C182.249 32.48 182.089 31.9467 182.089 31.328ZM183.897 31.616C183.897 32.192 184.083 32.64 184.457 32.96C184.841 33.2693 185.358 33.424 186.009 33.424C186.659 33.424 187.177 33.2693 187.561 32.96C187.945 32.64 188.137 32.192 188.137 31.616C188.137 31.04 187.939 30.592 187.545 30.272C187.161 29.952 186.649 29.792 186.009 29.792C185.369 29.792 184.857 29.952 184.473 30.272C184.089 30.592 183.897 31.04 183.897 31.616ZM183.577 36.704C183.577 37.3547 183.795 37.8667 184.233 38.24C184.67 38.6027 185.262 38.784 186.009 38.784C186.755 38.784 187.347 38.6027 187.785 38.24C188.222 37.8667 188.441 37.3547 188.441 36.704C188.441 36.0427 188.211 35.5467 187.753 35.216C187.305 34.8747 186.723 34.704 186.009 34.704C185.305 34.704 184.723 34.8747 184.265 35.216C183.806 35.5573 183.577 36.0533 183.577 36.704Z" fill="#7E7E7E"/>
</svg>
