<svg width="32" height="32" viewBox="0 0 32 32" fill="none" xmlns="http://www.w3.org/2000/svg">
<path fill-rule="evenodd" clip-rule="evenodd" d="M24.6768 8.65722L24.6272 8.62415C23.6019 7.64849 22.3948 7.18547 21.0057 7.25161L20.9561 7.15239L20.9892 7.13586C22.2459 6.85474 22.9901 6.55708 23.2216 6.22635C23.2877 5.96176 23.205 5.81293 22.9239 5.77986C22.2955 5.86254 21.7002 5.99484 21.1876 6.20981C21.8491 5.77986 22.0971 5.4822 21.9483 5.33337C21.3034 5.34991 20.5923 5.68064 19.8647 6.3421C20.1293 5.87908 20.245 5.6145 20.1789 5.58142C19.8151 5.81293 19.5174 6.07752 19.2528 6.35864C18.6906 6.98703 18.2441 7.56581 17.8968 8.09498L17.8803 8.12805C17.0038 9.56673 16.3755 11.0054 16.0117 12.4772L15.8794 12.5929L15.8463 12.6095C15.3171 11.948 14.6722 11.3857 13.9115 10.9393C13.0185 10.3439 11.9602 9.79824 10.7365 9.25253C9.41358 8.558 8.05758 7.99576 6.70159 7.54927C6.68505 9.08717 7.44573 10.2943 8.91748 11.1873V11.2038C8.40485 11.2038 7.89222 11.2865 7.39612 11.4354C7.49534 12.8575 8.50407 13.8332 10.4058 14.3623L10.3892 14.3954C9.64509 14.3458 9.03324 14.6104 8.55368 15.1561C9.18207 16.3798 10.29 16.9586 11.8941 16.9255C11.5799 17.0909 11.3318 17.2562 11.1665 17.4547C10.8688 17.7688 10.7696 18.1327 10.8688 18.5461C11.2161 19.1745 11.8279 19.4556 12.7374 19.406L12.787 19.4721L12.7705 19.5052C11.1995 21.1258 9.29782 21.8534 7.08193 21.7045L7.04885 21.7211C5.69286 21.7045 4.23764 21.0596 2.66667 19.7698C4.23764 22.0353 6.33778 23.6724 8.93402 24.7142C11.8941 25.6899 14.8706 25.7725 17.8307 24.9292H17.8803C20.7576 24.1023 23.1885 22.3825 25.206 19.8028C26.132 18.4634 26.7108 17.1735 26.9423 15.9333C28.4471 15.9829 29.522 15.553 30.2 14.6269L30.1835 14.5938C29.6708 14.7757 28.6952 14.7261 27.2565 14.4285V14.2631C28.844 14.0812 29.7866 13.5686 30.0842 12.7252C28.9763 13.1552 27.8849 13.1717 26.81 12.7583C26.6116 11.27 25.9005 9.89746 24.6768 8.65722Z" fill="#1E252C"/>
<mask id="mask0" mask-type="alpha" maskUnits="userSpaceOnUse" x="2" y="5" width="29" height="21">
<path fill-rule="evenodd" clip-rule="evenodd" d="M24.6768 8.65722L24.6272 8.62415C23.6019 7.64849 22.3948 7.18547 21.0057 7.25161L20.9561 7.15239L20.9892 7.13586C22.2459 6.85474 22.9901 6.55708 23.2216 6.22635C23.2877 5.96176 23.205 5.81293 22.9239 5.77986C22.2955 5.86254 21.7002 5.99484 21.1876 6.20981C21.8491 5.77986 22.0971 5.4822 21.9483 5.33337C21.3034 5.34991 20.5923 5.68064 19.8647 6.3421C20.1293 5.87908 20.245 5.6145 20.1789 5.58142C19.8151 5.81293 19.5174 6.07752 19.2528 6.35864C18.6906 6.98703 18.2441 7.56581 17.8968 8.09498L17.8803 8.12805C17.0038 9.56673 16.3755 11.0054 16.0117 12.4772L15.8794 12.5929L15.8463 12.6095C15.3171 11.948 14.6722 11.3857 13.9115 10.9393C13.0185 10.3439 11.9602 9.79824 10.7365 9.25253C9.41358 8.558 8.05758 7.99576 6.70159 7.54927C6.68505 9.08717 7.44573 10.2943 8.91748 11.1873V11.2038C8.40485 11.2038 7.89222 11.2865 7.39612 11.4354C7.49534 12.8575 8.50407 13.8332 10.4058 14.3623L10.3892 14.3954C9.64509 14.3458 9.03324 14.6104 8.55368 15.1561C9.18207 16.3798 10.29 16.9586 11.8941 16.9255C11.5799 17.0909 11.3318 17.2562 11.1665 17.4547C10.8688 17.7688 10.7696 18.1327 10.8688 18.5461C11.2161 19.1745 11.8279 19.4556 12.7374 19.406L12.787 19.4721L12.7705 19.5052C11.1995 21.1258 9.29782 21.8534 7.08193 21.7045L7.04885 21.7211C5.69286 21.7045 4.23764 21.0596 2.66667 19.7698C4.23764 22.0353 6.33778 23.6724 8.93402 24.7142C11.8941 25.6899 14.8706 25.7725 17.8307 24.9292H17.8803C20.7576 24.1023 23.1885 22.3825 25.206 19.8028C26.132 18.4634 26.7108 17.1735 26.9423 15.9333C28.4471 15.9829 29.522 15.553 30.2 14.6269L30.1835 14.5938C29.6708 14.7757 28.6952 14.7261 27.2565 14.4285V14.2631C28.844 14.0812 29.7866 13.5686 30.0842 12.7252C28.9763 13.1552 27.8849 13.1717 26.81 12.7583C26.6116 11.27 25.9005 9.89746 24.6768 8.65722Z" fill="white"/>
</mask>
<g mask="url(#mask0)">
<rect width="32" height="32" fill="#1E252C"/>
</g>
</svg>
