<svg width="90" height="87" viewBox="0 0 90 87" fill="none" xmlns="http://www.w3.org/2000/svg">
<g clip-path="url(#clip0)">
<path d="M89.3415 42.3166C88.9292 42.0472 88.4055 41.9928 87.9435 42.1716L72.9435 47.9694C72.3741 48.1892 72.0004 48.7218 72 49.3145H69V40.6178C69 38.2163 66.9853 36.2695 64.5 36.2695H55.5H27H13.5C11.0147 36.2695 9 38.2163 9 40.6178V41.5049L1.974 39.2423C1.188 38.9894 0.338625 39.4 0.076875 40.1595C0.025875 40.3073 0 40.462 0 40.6178V58.0111C0 58.8116 0.671625 59.4605 1.5 59.4605C1.66106 59.4604 1.821 59.4355 1.974 59.3866L9 57.1241V75.4044C9 77.8059 11.0147 79.7527 13.5 79.7527H64.5C66.9853 79.7527 69 77.8059 69 75.4044V66.7077H72C71.9998 67.3007 72.3735 67.8343 72.9435 68.0543L87.9435 73.852C88.4055 74.0308 88.9292 73.9765 89.3415 73.7071C89.7538 73.4371 90.0006 72.9869 90 72.5055V43.5167C90 43.0359 89.7534 42.5864 89.3415 42.3166ZM9 54.0672L3 56.0007V42.6282L9 44.5618V54.0672ZM66 75.4044C66 76.2048 65.3284 76.8538 64.5 76.8538H13.5C12.6716 76.8538 12 76.2048 12 75.4044V40.6178C12 39.8174 12.6716 39.1684 13.5 39.1684H64.5C65.3284 39.1684 66 39.8174 66 40.6178V75.4044ZM72 63.8089H69V52.2134H72V63.8089ZM87 70.3647L75 65.7265V50.2957L87 45.6575V70.3647Z" fill="black"/>
<path d="M42 21.7751C42 13.7701 35.2843 7.28076 27 7.28076C18.7157 7.28076 12 13.7701 12 21.7751C12 29.7802 18.7157 36.2695 27 36.2695C35.2806 36.2606 41.991 29.7766 42 21.7751ZM27 33.3706C20.3726 33.3706 15 28.1791 15 21.7751C15 15.3712 20.3726 10.1796 27 10.1796C33.6274 10.1796 39 15.3712 39 21.7751C38.9925 28.1762 33.6244 33.3634 27 33.3706Z" fill="black"/>
<path d="M66 26.1234C66 20.5198 61.299 15.9773 55.5 15.9773C49.701 15.9773 45 20.5198 45 26.1234C45 31.7269 49.701 36.2694 55.5 36.2694C61.2962 36.2631 65.9934 31.7242 66 26.1234ZM55.5 33.3706C51.3579 33.3706 48 30.1258 48 26.1234C48 22.1209 51.3579 18.8762 55.5 18.8762C59.6421 18.8762 63 22.1209 63 26.1234C62.9951 30.1238 59.64 33.3658 55.5 33.3706Z" fill="black"/>
<path d="M54 44.9661H24C23.1716 44.9661 22.5 45.6151 22.5 46.4155V69.6065C22.5 70.407 23.1716 71.056 24 71.056H54C54.8284 71.056 55.5 70.407 55.5 69.6065V46.4155C55.5 45.6151 54.8284 44.9661 54 44.9661ZM52.5 68.1571H25.5V47.8649H52.5V68.1571Z" fill="black"/>
</g>
<defs>
<clipPath id="clip0">
<rect width="90" height="86.9663" fill="white" transform="translate(0 0.0336914)"/>
</clipPath>
</defs>
</svg>
