<svg width="64" height="64" viewBox="0 0 64 64" fill="none" xmlns="http://www.w3.org/2000/svg">
<path d="M9 9H11V13H9V9Z" fill="black"/>
<path d="M9 17H11V21H9V17Z" fill="black"/>
<path d="M4 14H8V16H4V14Z" fill="black"/>
<path d="M12 14H16V16H12V14Z" fill="black"/>
<path d="M56 22H58V24H56V22Z" fill="black"/>
<path d="M56 18H58V20H56V18Z" fill="black"/>
<path d="M54 20H56V22H54V20Z" fill="black"/>
<path d="M58 20H60V22H58V20Z" fill="black"/>
<path d="M53.5522 30.106L55.5522 29.106L56.4468 30.895L54.4468 31.8945L53.5522 30.106Z" fill="black"/>
<path d="M6.55322 31.894L7.44727 30.1055L9.44727 31.1055L8.55273 32.894L6.55322 31.894Z" fill="black"/>
<path d="M43.021 33.708L41.606 32.292C41.8589 32.0405 42.001 31.6987 42.001 31.3418C42.001 30.9854 41.8589 30.6436 41.606 30.3921C41.0752 29.8818 40.2368 29.8818 39.7061 30.3921L38.29 28.9771C39.6133 27.7144 41.6958 27.7144 43.019 28.9771C44.3242 30.2832 44.3242 32.3999 43.019 33.7061L43.021 33.708Z" fill="black"/>
<path d="M61 4H58V6H61C61.5522 6 62 6.44775 62 7V36H51.3179C52.8496 32.7983 51.73 28.9575 48.7178 27.0801C49.3545 24.707 48.8647 22.1729 47.3906 20.2075C45.916 18.2422 43.6206 17.063 41.1641 17.0098C39.5786 13.3608 35.979 11.0005 32.0005 11.0005C28.022 11.0005 24.4224 13.3608 22.8369 17.0098C20.3804 17.063 18.0845 18.2417 16.6099 20.207C15.1353 22.1724 14.6455 24.7065 15.2822 27.0801C12.27 28.9575 11.1504 32.7983 12.6821 36H2V7C2 6.44775 2.44775 6 3 6H6V4H3C1.34326 4 0 5.34326 0 7V47C0 48.6567 1.34326 50 3 50H24V55C24 56.6567 22.6567 58 21 58H16V64H48V58H43C41.3433 58 40 56.6567 40 55V50H61C62.6567 50 64 48.6567 64 47V7C64 5.34326 62.6567 4 61 4ZM19 28V26C18.3682 26.0015 17.7397 26.0894 17.1318 26.2612C16.79 24.6284 17.1401 22.9272 18.0991 21.5625C19.0581 20.1982 20.54 19.292 22.1919 19.061C22.0649 19.6997 22.0005 20.3491 22 21H24C24 16.5815 27.5815 13 32 13C36.4185 13 40 16.5815 40 21H42C41.9995 20.3481 41.9351 19.6982 41.8081 19.0591C43.4595 19.291 44.9409 20.1968 45.8999 21.561C46.8589 22.9258 47.2095 24.6265 46.8682 26.2588C46.2603 26.0879 45.6313 26.001 45 26V28C47.7603 28.0034 49.9966 30.2397 50 33C49.9951 34.0869 49.6313 35.1416 48.9648 36H15.0352C14.3687 35.1416 14.0049 34.0869 14 33C14.0034 30.2397 16.2397 28.0034 19 28ZM46 60V62H18V60H46ZM32 56.042C33.6567 56.042 35 54.6987 35 53.042V50H38V55C38.0039 56.0854 38.3643 57.1396 39.0259 58H24.9741C25.6357 57.1396 25.9961 56.0854 26 55V50H29V53.042C29 54.6987 30.3433 56.042 32 56.042ZM31 53.042V50H33V53.042C33 53.5942 32.5522 54.042 32 54.042C31.4478 54.042 31 53.5942 31 53.042ZM62 47C62 47.5522 61.5522 48 61 48H3C2.44775 48 2 47.5522 2 47V38H62V47Z" fill="black"/>
<path d="M35 40H29V46H35V40ZM33 44H31V42H33V44Z" fill="black"/>
<path d="M24.7358 32.2929C23.7539 31.3105 23.7539 29.7182 24.7358 28.7358C25.7183 27.7539 27.3105 27.7539 28.293 28.7358L29.707 27.3217C29.2441 26.8628 28.686 26.5102 28.0718 26.29C28.4595 24.2729 30.3115 22.8769 32.3569 23.06C34.4028 23.2431 35.9771 24.9463 36 27H38C37.978 23.8891 35.5815 21.311 32.4805 21.062C29.3794 20.813 26.6025 22.9756 26.084 26.0429C25.042 26.1333 24.0649 26.5859 23.3218 27.3217C21.562 29.0864 21.562 31.9423 23.3218 33.707L24.7358 32.2929Z" fill="black"/>
<path d="M49 1H51V5H49V1Z" fill="black"/>
<path d="M49 9H51V13H49V9Z" fill="black"/>
<path d="M44 6H48V8H44V6Z" fill="black"/>
<path d="M52 6H56V8H52V6Z" fill="black"/>
<path d="M12 4H14V6H12V4Z" fill="black"/>
<path d="M12 0H14V2H12V0Z" fill="black"/>
<path d="M10 2H12V4H10V2Z" fill="black"/>
<path d="M14 2H16V4H14V2Z" fill="black"/>
<path d="M42.2935 14.292L46.2935 10.292L47.7075 11.7061L43.7075 15.7065L42.2935 14.292Z" fill="black"/>
<path d="M30 4H32V9H30V4Z" fill="black"/>
<path d="M30 0H32V2H30V0Z" fill="black"/>
<path d="M51.2935 25.293L53.293 23.293L54.7075 24.707L52.7075 26.707L51.2935 25.293Z" fill="black"/>
<path d="M15.293 6.70703L16.707 5.29248L23.7065 12.2925L22.2925 13.7065L15.293 6.70703Z" fill="black"/>
<path d="M6.3999 24.7998L7.6001 23.2002L11.6001 26.2002L10.3999 27.7998L6.3999 24.7998Z" fill="black"/>
<path d="M36.0513 8.68359L37.0513 5.68408L38.9487 6.31689L37.9482 9.31641L36.0513 8.68359Z" fill="black"/>
</svg>
